<svg width="37" height="29" viewBox="0 0 37 29" fill="none" xmlns="http://www.w3.org/2000/svg">
<path d="M6.69458 28.3333V12.3612L1.66667 16.1946L0 14L18.3333 0L25.5 5.47208V1.66667H29.9446V8.86125L36.6667 14L34.9721 16.1946L29.9446 12.3333V28.3333H20.2779V18.3333H16.3888V28.3333H6.69458ZM9.47208 25.5554H13.6113V15.5554H23.0554V25.5554H27.1667V10.2362L18.3333 3.48625L9.47208 10.2362V25.5554ZM14.8613 11.4029H21.8054C21.8054 10.4954 21.4582 9.74764 20.7638 9.15958C20.0693 8.57181 19.2592 8.27792 18.3333 8.27792C17.4075 8.27792 16.5974 8.57042 15.9029 9.15542C15.2085 9.74042 14.8613 10.4896 14.8613 11.4029Z" fill="#1C1B1F"/>
</svg>
