<svg width="75" height="75" viewBox="0 0 75 75" fill="none" xmlns="http://www.w3.org/2000/svg">
<path d="M67.2145 41.1276V41.1039C67.2142 41.0951 67.2142 41.0864 67.2145 41.0773C66.5007 36.454 64.6489 32.195 62.1924 28.3641C61.8832 27.8797 61.5619 27.4036 61.2333 26.9306C61.0739 26.7012 60.9124 26.4739 60.7481 26.2486C57.5892 21.8904 47.6115 10.0415 42.3698 3.86361C40.3869 1.52578 39.0821 0 39.0821 0C38.4908 0.471048 37.913 0.957112 37.3485 1.4582L37.329 1.4756C33.2411 5.27425 29.8514 9.75287 27.312 14.71L27.304 14.7254C26.815 15.6811 26.3584 16.6539 25.934 17.6438C24.9523 19.937 24.1542 22.3036 23.5476 24.7218C23.1795 26.1833 22.8815 27.6707 22.6533 29.1835C21.3989 28.9793 20.1318 28.8609 18.861 28.8291C18.6206 28.823 18.3803 28.8199 18.14 28.8199C16.0634 28.8183 13.9932 29.0485 11.9682 29.506C10.7286 31.4959 9.73078 33.6251 8.99559 35.8488C8.00173 38.8583 7.49687 42.0061 7.50001 45.1735C7.50001 59.651 17.8763 71.7211 31.6393 74.4297C33.5694 74.8098 35.5323 75.0008 37.5 75C37.8884 75 38.2746 74.9917 38.6598 74.9783C39.6713 74.9388 40.6686 74.8516 41.6518 74.7164C43.9433 74.4005 46.1901 73.8212 48.3468 72.9897C48.9218 72.7686 49.4876 72.5296 50.0444 72.2731C60.3445 67.5512 67.5 57.1922 67.5 45.1735C67.4958 43.82 67.4006 42.4683 67.2145 41.1276ZM27.8169 67.9352C24.863 66.6947 22.1796 64.8955 19.9157 62.638C17.6456 60.3872 15.8364 57.72 14.5885 54.7838C13.2941 51.7421 12.6305 48.472 12.6377 45.1693C12.6304 41.8662 13.2939 38.5958 14.5885 35.5539C14.7945 35.0651 15.0173 34.5851 15.257 34.1142C16.2092 33.9955 17.1679 33.9358 18.1276 33.9358C19.4776 33.9358 20.8249 34.0543 22.1539 34.2902C22.1251 34.957 22.1106 35.6297 22.1106 36.3046C22.0924 48.8593 27.0717 60.9114 35.9611 69.8288C33.1575 69.6647 30.403 69.0242 27.8169 67.9352ZM38.8378 65.4173C38.2351 64.7804 37.6553 64.127 37.0982 63.4574C34.4286 60.2623 32.2469 56.6939 30.6236 52.8669C28.3929 47.6258 27.2492 41.9911 27.2607 36.3004C27.2607 36.1453 27.2607 35.9907 27.2607 35.8364C29.8125 36.9618 32.1327 38.5471 34.1041 40.5122C37.1603 43.5345 39.2765 47.3677 40.1995 51.5542C40.5487 53.1449 40.7241 54.7686 40.7228 56.3966C40.7324 59.5003 40.0931 62.5722 38.8451 65.4173H38.8378ZM62.3642 46.0243C62.2069 50.6691 60.7326 55.1753 58.1115 59.0231C55.9812 62.1482 53.1633 64.7502 49.8713 66.6317L49.8383 66.6162C48.9732 67.1091 48.0789 67.5496 47.1603 67.9352C46.0162 68.4167 44.8367 68.8113 43.6326 69.116C43.4184 69.1705 43.2035 69.2218 42.9878 69.2696C42.8715 69.2962 42.756 69.3217 42.6397 69.3455C42.6849 69.2634 42.7293 69.1785 42.7726 69.0944C42.8396 68.9664 42.9055 68.8384 42.9694 68.7093C43.7556 67.146 44.3889 65.511 44.8603 63.8269C45.537 61.4097 45.8791 58.9119 45.877 56.4028C45.8778 54.5773 45.6974 52.7565 45.3382 50.9663C43.4296 41.4778 36.6256 33.7485 27.6562 30.4859C28.0695 27.4679 28.8108 24.5035 29.8675 21.6446C30.1045 21.005 30.3568 20.3697 30.6246 19.7389C31.0285 18.7886 31.4651 17.8568 31.9349 16.9434C31.9375 16.9388 31.9401 16.934 31.9419 16.929C32.1345 16.5307 32.3334 16.1385 32.5395 15.7473C34.1563 12.6866 36.1944 9.86486 38.5949 7.36369L38.6351 7.41185C40.7631 9.92068 43.611 13.2958 46.4476 16.6966C47.8988 18.4374 49.3472 20.1854 50.6943 21.8289C53.221 24.9122 55.3922 27.6279 56.5655 29.2407C56.7332 29.4722 56.8969 29.7027 57.0576 29.9362C58.7427 32.3681 60.0447 34.8269 60.9275 37.2588C61.4887 38.7922 61.8933 40.378 62.1355 41.9919V42.0123C62.3338 43.34 62.4112 44.6829 62.3663 46.0243H62.3642Z" fill="black"/>
</svg>
